nspired by a true story, a comedy centered on a 27-year-old guy who learns of his cancer diagnosis, and his subsequent struggle to beat the disease.

Director:
Jonathan Levine
Writer:
Will Reiser
Stars:
Joseph Gordon-Levitt, Seth Rogen and Anna Kendrick 

Media info:

General
Unique ID                        : 174666589630291452742470258269778389601 (0x83678FC01F34CBA9BE91F056142CAA61)
Complete name                    : E:\torrent2\50-50.(2011)blurayrip.MKV.AVC.DTS 5.1.ACB-team\50-50.(2011)blurayrip.MKV.AVC.DTS 5.1.ACB-team.mkv
Format                           : Matroska
Format version                   : Version 2
File size                        : 9.65 GiB
Duration                         : 1h 40mn
Overall bit rate mode            : Variable
Overall bit rate                 : 13.8 Mbps
Movie name                       : movie
Encoded date                     : UTC 2012-01-12 16:11:46
Writing application              : mkvmerge v3.2.0 ('Beginnings') built on Feb 12 2010 16:46:17
Writing library                  : libebml v0.7.9 + libmatroska v0.8.1

Video
ID                               : 1
Format                           : AVC
Format/Info                      : Advanced Video Codec
Format profile                   : High@L4.1
Format settings, CABAC           : Yes
Format settings, ReFrames        : 2 frames
Format settings, GOP             : M=4, N=24
Muxing mode                      : Container profile=Unknown@0.0
Codec ID                         : V_MPEG4/ISO/AVC
Duration                         : 1h 40mn
Bit rate mode                    : Variable
Bit rate                         : 12.6 Mbps
Maximum bit rate                 : 35.0 Mbps
Width                            : 1 920 pixels
Height                           : 1 080 pixels
Display aspect ratio             : 16:9
Frame rate                       : 23.976 fps
Color space                      : YUV
Chroma subsampling               : 4:2:0
Bit depth                        : 8 bits
Scan type                        : Progressive
Bits/(Pixel*Frame)               : 0.253
Stream size                      : 8.40 GiB (87%)
Writing library                  : x264 core 118 r2085 8a62835
Encoding settings                : cabac=1 / ref=1 / deblock=1:0:0 / analyse=0x3:0x3 / me=dia / subme=1 / psy=1 / psy_rd=1.00:0.00 / mixed_ref=0 / me_range=16 / chroma_me=1 / trellis=0 / 8x8dct=1 / cqm=0 / deadzone=21,11 / fast_pskip=1 / chroma_qp_offset=0 / threads=3 / sliced_threads=0 / slices=4 / nr=0 / decimate=1 / interlaced=0 / bluray_compat=1 / constrained_intra=0 / bframes=3 / b_pyramid=0 / b_adapt=1 / b_bias=0 / direct=1 / weightb=1 / open_gop=0 / weightp=1 / keyint=24 / keyint_min=1 / scenecut=40 / intra_refresh=0 / rc_lookahead=0 / rc=abr / mbtree=0 / bitrate=12557 / ratetol=1.0 / qcomp=0.60 / qpmin=0 / qpmax=69 / qpstep=4 / vbv_maxrate=35000 / vbv_bufsize=30000 / nal_hrd=vbr / ip_ratio=1.10 / pb_ratio=1.10 / aq=1:1.00
Default                          : No
Forced                           : No

Audio
ID                               : 2
Format                           : DTS
Format/Info                      : Digital Theater Systems
Codec ID                         : A_DTS
Duration                         : 1h 40mn
Bit rate mode                    : Constant
Bit rate                         : 1 510 Kbps
Channel(s)                       : 6 channels
Channel positions                : Front: L C R, Side: L R, LFE
Sampling rate                    : 48.0 KHz
Bit depth                        : 24 bits
Compression mode                 : Lossy
Stream size                      : 1.06 GiB (11%)
Language                         : English
Default                          : Yes
Forced                           : No

Text #1
ID                               : 3
Format                           : VobSub
Muxing mode                      : zlib
Codec ID                         : S_VOBSUB
Codec ID/Info                    : The same subtitle format used on DVDs
Language                         : English
Default                          : Yes
Forced                           : No

Text #2
ID                               : 4
Format                           : VobSub
Muxing mode                      : zlib
Codec ID                         : S_VOBSUB
Codec ID/Info                    : The same subtitle format used on DVDs
Language                         : Spanish
Default                          : No
Forced                           : No

Text #3
ID                               : 5
Format                           : UTF-8
Codec ID                         : S_TEXT/UTF8
Codec ID/Info                    : UTF-8 Plain Text
Language                         : Dutch
Default                          : No
Forced                           : No

Menu
00:00:00.000                     : en:00:00:00.000
00:05:34.625                     : en:00:05:34.625
00:10:11.902                     : en:00:10:11.902
00:17:09.069                     : en:00:17:09.069
00:23:20.524                     : en:00:23:20.524
00:31:16.040                     : en:00:31:16.040
00:38:12.665                     : en:00:38:12.665
00:43:50.628                     : en:00:43:50.628
00:50:55.761                     : en:00:50:55.761
00:56:39.020                     : en:00:56:39.020
01:03:00.443                     : en:01:03:00.443
01:05:22.710                     : en:01:05:22.710
01:10:44.239                     : en:01:10:44.239
01:14:38.849                     : en:01:14:38.849
01:20:35.372                     : en:01:20:35.372
01:24:36.362                     : en:01:24:36.362
01:28:27.301                     : en:01:28:27.301
01:32:49.021                     : en:01:32:49.021

